<svg width="570" height="440" viewBox="0 0 570 440" xmlns="http://www.w3.org/2000/svg">
  <rect width="570" height="440" fill="#1a4d5e"/>
  
  <!-- الدوائر العلوية -->
  <g fill="#00d9b5">
    <!-- الصف الأول -->
    <circle cx="180" cy="150" r="8"/>
    <circle cx="200" cy="150" r="8"/>
    <circle cx="220" cy="150" r="8"/>
    <circle cx="240" cy="150" r="8"/>
    <circle cx="260" cy="153" r="7"/>
    <circle cx="278" cy="157" r="6"/>
    <circle cx="294" cy="162" r="5"/>
    <circle cx="308" cy="168" r="4"/>
    
    <!-- الصف الثاني -->
    <circle cx="180" cy="170" r="8"/>
    <circle cx="200" cy="170" r="8"/>
    <circle cx="220" cy="170" r="8"/>
    <circle cx="240" cy="173" r="7"/>
    <circle cx="258" cy="177" r="6"/>
    <circle cx="274" cy="182" r="5"/>
    <circle cx="288" cy="188" r="4"/>
    
    <!-- الصف الثالث -->
    <circle cx="180" cy="190" r="8"/>
    <circle cx="200" cy="190" r="8"/>
    <circle cx="220" cy="193" r="7"/>
    <circle cx="238" cy="197" r="6"/>
    <circle cx="254" cy="202" r="5"/>
    <circle cx="268" cy="208" r="4"/>
    <circle cx="280" cy="215" r="3"/>
    
    <!-- الصف الرابع (الوسط) -->
    <circle cx="290" cy="215" r="3"/>
    <circle cx="302" cy="208" r="4"/>
    <circle cx="316" cy="202" r="5"/>
    <circle cx="332" cy="197" r="6"/>
    <circle cx="350" cy="193" r="7"/>
    <circle cx="370" cy="190" r="8"/>
    <circle cx="390" cy="190" r="8"/>
    
    <!-- الصف الخامس -->
    <circle cx="282" cy="188" r="4"/>
    <circle cx="296" cy="182" r="5"/>
    <circle cx="312" cy="177" r="6"/>
    <circle cx="330" cy="173" r="7"/>
    <circle cx="350" cy="170" r="8"/>
    <circle cx="370" cy="170" r="8"/>
    <circle cx="390" cy="170" r="8"/>
    
    <!-- الصف السادس -->
    <circle cx="262" cy="168" r="4"/>
    <circle cx="276" cy="162" r="5"/>
    <circle cx="292" cy="157" r="6"/>
    <circle cx="310" cy="153" r="7"/>
    <circle cx="330" cy="150" r="8"/>
    <circle cx="350" cy="150" r="8"/>
    <circle cx="370" cy="150" r="8"/>
    <circle cx="390" cy="150" r="8"/>
  </g>
  
  <!-- النص العربي -->
  <text x="285" y="270" text-anchor="middle" fill="#00d9b5" font-size="32" font-weight="bold" font-family="Arial, sans-serif">وزارة التعليم</text>
  
  <!-- النص الإنجليزي -->
  <text x="285" y="300" text-anchor="middle" fill="#00d9b5" font-size="18" font-family="Arial, sans-serif">Ministry of Education</text>
</svg>
